<?xml version="1.0" encoding="UTF-8" standalone="no"?>
<!-- Generator: Adobe Illustrator 24.0.2, SVG Export Plug-In . SVG Version: 6.00 Build 0)  -->

<svg
   version="1.1"
   id="Layer_1"
   x="0px"
   y="0px"
   viewBox="0 0 468.75693 100"
   xml:space="preserve"
   sodipodi:docname="sarid_logo (1).svg"
   width="468.75693"
   height="100"
   inkscape:version="1.1.1 (3bf5ae0d25, 2021-09-20)"
   xmlns:inkscape="http://www.inkscape.org/namespaces/inkscape"
   xmlns:sodipodi="http://sodipodi.sourceforge.net/DTD/sodipodi-0.dtd"
   xmlns="http://www.w3.org/2000/svg"
   xmlns:svg="http://www.w3.org/2000/svg"><defs
   id="defs126">
	
	

		
		
	</defs><sodipodi:namedview
   id="namedview124"
   pagecolor="#ffffff"
   bordercolor="#666666"
   borderopacity="1.0"
   inkscape:pageshadow="2"
   inkscape:pageopacity="0.0"
   inkscape:pagecheckerboard="0"
   showgrid="false"
   fit-margin-top="0"
   fit-margin-left="0"
   fit-margin-right="0"
   fit-margin-bottom="0"
   inkscape:zoom="2.2815492"
   inkscape:cx="182.1131"
   inkscape:cy="50.185199"
   inkscape:window-width="2560"
   inkscape:window-height="1369"
   inkscape:window-x="-8"
   inkscape:window-y="-8"
   inkscape:window-maximized="1"
   inkscape:current-layer="Layer_1" />
<style
   type="text/css"
   id="style2">
	.st0{fill:#FFFFFF;}
	.st1{fill:url(#SVGID_1_);}
	.st2{fill:url(#SVGID_2_);}
	.st3{fill:url(#SVGID_3_);}
</style>
<g
   id="g1148"
   transform="translate(-49.689999,-49.080001)"><g
     id="g43">
		<g
   id="g15">
			<linearGradient
   id="SVGID_1_"
   gradientUnits="userSpaceOnUse"
   x1="54.737999"
   y1="50.351601"
   x2="133.15331"
   y2="147.55389">
				<stop
   offset="0"
   style="stop-color:#3398FF"
   id="stop4" />
				<stop
   offset="0.2717"
   style="stop-color:#2187FF"
   id="stop6" />
				<stop
   offset="0.7226"
   style="stop-color:#096FFF"
   id="stop8" />
				<stop
   offset="1"
   style="stop-color:#0066FF"
   id="stop10" />
			</linearGradient>
			<rect
   x="83.169998"
   y="49.689999"
   class="st1"
   width="22.26"
   height="99.389999"
   id="rect13"
   style="fill:url(#SVGID_1_)" />
		</g>
		<g
   id="g28">
			<linearGradient
   id="SVGID_2_"
   gradientUnits="userSpaceOnUse"
   x1="86.529099"
   y1="23.431499"
   x2="164.302"
   y2="119.8374">
				<stop
   offset="0"
   style="stop-color:#3398FF"
   id="stop17" />
				<stop
   offset="0.2717"
   style="stop-color:#2187FF"
   id="stop19" />
				<stop
   offset="0.7226"
   style="stop-color:#096FFF"
   id="stop21" />
				<stop
   offset="1"
   style="stop-color:#0066FF"
   id="stop23" />
			</linearGradient>
			<rect
   x="116.69"
   y="49.689999"
   class="st2"
   width="22.26"
   height="49.830002"
   id="rect26"
   style="fill:url(#SVGID_2_)" />
		</g>
		<g
   id="g41">
			<linearGradient
   id="SVGID_3_"
   gradientUnits="userSpaceOnUse"
   x1="23.5576"
   y1="78.112297"
   x2="101.3242"
   y2="174.51041">
				<stop
   offset="0"
   style="stop-color:#3398FF"
   id="stop30" />
				<stop
   offset="0.2717"
   style="stop-color:#2187FF"
   id="stop32" />
				<stop
   offset="0.7226"
   style="stop-color:#096FFF"
   id="stop34" />
				<stop
   offset="1"
   style="stop-color:#0066FF"
   id="stop36" />
			</linearGradient>
			<rect
   x="49.689999"
   y="99.529999"
   class="st3"
   width="22.26"
   height="49.549999"
   id="rect39"
   style="fill:url(#SVGID_3_)" />
		</g>
	</g><g
     id="g55"
     transform="matrix(1.4140271,0,0,1.4140271,-67.030995,-16.050087)">
			<path
   d="m 194.15,64.45 c -0.59,-1.48 -1.48,-2.85 -2.95,-4.13 -2.06,-1.67 -4.23,-2.36 -7.08,-2.36 -6.1,0 -9.24,3.64 -9.24,7.87 0,1.97 0.69,5.41 7.08,7.97 l 6.59,2.66 c 12.1,4.92 15.44,11.8 15.44,19.27 0,12.49 -8.85,21.05 -21.14,21.05 -7.57,0 -12.1,-2.85 -15.44,-6.59 -3.54,-3.93 -5.11,-8.26 -5.51,-12.79 l 9.93,-2.16 c 0,3.25 1.18,6.29 2.75,8.36 1.87,2.36 4.62,3.93 8.56,3.93 6.1,0 10.82,-4.43 10.82,-11.01 0,-6.69 -5.11,-9.44 -9.44,-11.21 l -6.29,-2.66 c -5.41,-2.26 -13.38,-6.79 -13.38,-16.62 0,-8.85 6.88,-17.31 19.18,-17.31 7.08,0 11.11,2.66 13.18,4.43 1.77,1.57 3.64,3.83 5.02,6.59 z"
   id="path45" />
			<path
   d="m 256.1,99.66 h -28.03 l -7.18,15.83 h -10.82 l 32.65,-69.43 31.08,69.43 h -10.82 z m -4.03,-9.45 -9.74,-22.23 -10.13,22.23 z"
   id="path47" />
			<path
   d="m 294.75,49.89 c 7.97,0 13.08,0.98 17.31,3.83 7.18,4.82 7.77,12.59 7.77,15.44 0,9.44 -5.8,16.32 -14.55,18.29 l 20.46,28.03 h -12.1 L 294.86,88.63 h -1.77 v 26.85 H 283.06 V 49.89 Z m -1.67,30.1 h 3.15 c 2.75,0 13.96,-0.29 13.96,-10.72 0,-9.24 -8.75,-10.13 -13.67,-10.13 h -3.44 z"
   id="path49" />
			<path
   d="m 346.58,49.89 v 65.59 H 336.55 V 49.89 Z"
   id="path51" />
			<path
   d="m 377.07,49.89 c 9.15,0 17.11,0.98 24.39,6.39 7.97,6 12.59,15.54 12.59,26.46 0,10.92 -4.52,20.36 -13.18,26.45 -7.67,5.41 -14.85,6.29 -24,6.29 H 363.3 V 49.89 Z m -3.74,56.16 h 4.33 c 4.92,0 11.7,-0.39 17.41,-4.62 4.52,-3.44 8.95,-9.74 8.95,-18.68 0,-8.65 -4.13,-15.44 -8.85,-18.88 -5.7,-4.13 -12.69,-4.52 -17.5,-4.52 h -4.33 v 46.7 z"
   id="path53" />
		</g></g>
</svg>
