<?xml version="1.0" encoding="utf-8"?>
<!-- Generator: Adobe Illustrator 24.0.2, SVG Export Plug-In . SVG Version: 6.00 Build 0)  -->
<svg version="1.1" id="Layer_1" xmlns="http://www.w3.org/2000/svg" xmlns:xlink="http://www.w3.org/1999/xlink" x="0px" y="0px"
	 viewBox="0 0 463.72 198.78" style="enable-background:new 0 0 463.72 198.78;" xml:space="preserve">
<style type="text/css">
	.st0{fill:#FFFFFF;}
	.st1{fill:url(#SVGID_1_);}
	.st2{fill:url(#SVGID_2_);}
	.st3{fill:url(#SVGID_3_);}
</style>
<g>
	<g>
		<g>
			<linearGradient id="SVGID_1_" gradientUnits="userSpaceOnUse" x1="54.738" y1="50.3516" x2="133.1533" y2="147.5539">
				<stop  offset="0" style="stop-color:#3398FF"/>
				<stop  offset="0.2717" style="stop-color:#2187FF"/>
				<stop  offset="0.7226" style="stop-color:#096FFF"/>
				<stop  offset="1" style="stop-color:#0066FF"/>
			</linearGradient>
			<rect x="83.17" y="49.69" class="st1" width="22.26" height="99.39"/>
		</g>
		<g>
			<linearGradient id="SVGID_2_" gradientUnits="userSpaceOnUse" x1="86.5291" y1="23.4315" x2="164.302" y2="119.8374">
				<stop  offset="0" style="stop-color:#3398FF"/>
				<stop  offset="0.2717" style="stop-color:#2187FF"/>
				<stop  offset="0.7226" style="stop-color:#096FFF"/>
				<stop  offset="1" style="stop-color:#0066FF"/>
			</linearGradient>
			<rect x="116.69" y="49.69" class="st2" width="22.26" height="49.83"/>
		</g>
		<g>
			<linearGradient id="SVGID_3_" gradientUnits="userSpaceOnUse" x1="23.5576" y1="78.1123" x2="101.3242" y2="174.5104">
				<stop  offset="0" style="stop-color:#3398FF"/>
				<stop  offset="0.2717" style="stop-color:#2187FF"/>
				<stop  offset="0.7226" style="stop-color:#096FFF"/>
				<stop  offset="1" style="stop-color:#0066FF"/>
			</linearGradient>
			<rect x="49.69" y="99.53" class="st3" width="22.26" height="49.55"/>
		</g>
	</g>
	<g>
		<g>
			<path d="M194.15,64.45c-0.59-1.48-1.48-2.85-2.95-4.13c-2.06-1.67-4.23-2.36-7.08-2.36c-6.1,0-9.24,3.64-9.24,7.87
				c0,1.97,0.69,5.41,7.08,7.97l6.59,2.66c12.1,4.92,15.44,11.8,15.44,19.27c0,12.49-8.85,21.05-21.14,21.05
				c-7.57,0-12.1-2.85-15.44-6.59c-3.54-3.93-5.11-8.26-5.51-12.79l9.93-2.16c0,3.25,1.18,6.29,2.75,8.36
				c1.87,2.36,4.62,3.93,8.56,3.93c6.1,0,10.82-4.43,10.82-11.01c0-6.69-5.11-9.44-9.44-11.21l-6.29-2.66
				c-5.41-2.26-13.38-6.79-13.38-16.62c0-8.85,6.88-17.31,19.18-17.31c7.08,0,11.11,2.66,13.18,4.43c1.77,1.57,3.64,3.83,5.02,6.59
				L194.15,64.45z"/>
			<path d="M256.1,99.66h-28.03l-7.18,15.83h-10.82l32.65-69.43l31.08,69.43h-10.82L256.1,99.66z M252.07,90.21l-9.74-22.23
				l-10.13,22.23H252.07z"/>
			<path d="M294.75,49.89c7.97,0,13.08,0.98,17.31,3.83c7.18,4.82,7.77,12.59,7.77,15.44c0,9.44-5.8,16.32-14.55,18.29l20.46,28.03
				h-12.1l-18.78-26.85h-1.77v26.85h-10.03V49.89H294.75z M293.08,79.99h3.15c2.75,0,13.96-0.29,13.96-10.72
				c0-9.24-8.75-10.13-13.67-10.13h-3.44V79.99z"/>
			<path d="M346.58,49.89v65.59h-10.03V49.89H346.58z"/>
			<path d="M377.07,49.89c9.15,0,17.11,0.98,24.39,6.39c7.97,6,12.59,15.54,12.59,26.46s-4.52,20.36-13.18,26.45
				c-7.67,5.41-14.85,6.29-24,6.29H363.3V49.89H377.07z M373.33,106.05h4.33c4.92,0,11.7-0.39,17.41-4.62
				c4.52-3.44,8.95-9.74,8.95-18.68c0-8.65-4.13-15.44-8.85-18.88c-5.7-4.13-12.69-4.52-17.5-4.52h-4.33V106.05z"/>
		</g>
		<g>
			<path d="M167.42,135.16h-2.75v13.94h-1.26v-13.94h-2.75v-0.98h6.76V135.16z"/>
			<path d="M174.57,149.1l-2.24-6.65c-0.17,0.02-0.36,0.02-0.58,0.02h-1v6.63h-1.26v-14.92h2.26c2.94,0,4.05,1.22,4.05,4.16
				c0,2.22-0.6,3.5-2.32,3.94l2.39,6.82H174.57z M174.54,138.33c0-2.3-0.77-3.2-2.92-3.2h-0.87v6.42h0.87
				C173.82,141.55,174.54,140.66,174.54,138.33z"/>
			<path d="M178.03,144.3v-10.13h1.26v10.21c0,2.81,0.51,3.92,2.24,3.92c1.68,0,2.22-1.11,2.22-3.92v-10.21H185v10.13
				c0,3.56-0.92,4.97-3.47,4.97C178.92,149.27,178.03,147.86,178.03,144.3z"/>
			<path d="M187.31,144.02h1.17c-0.23,3.05,0.68,4.28,2.2,4.28c1.43,0,2.15-0.96,2.13-2.49c0-1.68-0.6-2.56-2.34-3.9
				c-2.2-1.68-3.05-2.73-3.05-4.63c0-1.81,1.15-3.22,3.3-3.22c2.69,0,3.37,2.05,3.28,4.58h-1.15c0.04-1.92-0.28-3.62-2.09-3.62
				c-1.43,0-2.11,1.07-2.11,2.3c0,1.36,0.75,2.24,2.3,3.43c2.34,1.77,3.11,2.79,3.11,5.03c0,2.2-1.17,3.47-3.41,3.47
				C188.53,149.27,186.99,147.88,187.31,144.02z"/>
			<path d="M202.26,135.16h-2.75v13.94h-1.26v-13.94h-2.75v-0.98h6.76V135.16z"/>
			<path d="M209.99,148.12v0.98h-5.65v-14.92h5.56v0.98h-4.28v5.33h3.69v0.94h-3.69v6.69H209.99z"/>
			<path d="M218.89,141.64c0,6.22-0.62,7.46-4.63,7.46h-1.9v-14.92h1.9C218.27,134.18,218.89,135.41,218.89,141.64z M217.63,141.64
				c0-5.5-0.28-6.52-3.35-6.52h-0.66v13.05h0.66C217.35,148.16,217.63,147.16,217.63,141.64z"/>
			<path d="M226.03,134.18h1.26v14.92h-1.26V134.18z"/>
			<path d="M237.38,134.18v14.92h-1.45l-4.29-12.77v12.77h-1.17v-14.92h1.45l4.28,12.77v-12.77H237.38z"/>
			<path d="M239.9,144.02h1.17c-0.23,3.05,0.68,4.28,2.2,4.28c1.43,0,2.15-0.96,2.13-2.49c0-1.68-0.6-2.56-2.34-3.9
				c-2.2-1.68-3.05-2.73-3.05-4.63c0-1.81,1.15-3.22,3.3-3.22c2.69,0,3.37,2.05,3.28,4.58h-1.15c0.04-1.92-0.28-3.62-2.09-3.62
				c-1.43,0-2.11,1.07-2.11,2.3c0,1.36,0.75,2.24,2.3,3.43c2.34,1.77,3.11,2.79,3.11,5.03c0,2.2-1.17,3.47-3.41,3.47
				C241.12,149.27,239.58,147.88,239.9,144.02z"/>
			<path d="M249.21,134.18h1.26v14.92h-1.26V134.18z"/>
			<path d="M260.37,141.13v2.94c0,3.75-0.98,5.18-3.52,5.18c-2.51,0-3.52-1.43-3.52-5.18v-4.88c0-3.71,1-5.16,3.52-5.16
				c2.17,0,3.3,1.19,3.43,4.28H259c-0.13-2.43-0.83-3.33-2.15-3.33c-1.64,0-2.24,1.09-2.24,4.05v5.18c0,2.98,0.6,4.07,2.24,4.07
				c1.66,0,2.26-1.09,2.26-4.07v-2.15h-2.03v-0.94H260.37z"/>
			<path d="M270.12,134.18v14.92h-1.26v-7.27h-4.37v7.27h-1.26v-14.92h1.26v6.67h4.37v-6.67H270.12z"/>
			<path d="M278.95,135.16h-2.75v13.94h-1.26v-13.94h-2.75v-0.98h6.76V135.16z"/>
			<path d="M280.37,144.02h1.17c-0.23,3.05,0.68,4.28,2.2,4.28c1.43,0,2.15-0.96,2.13-2.49c0-1.68-0.6-2.56-2.34-3.9
				c-2.2-1.68-3.05-2.73-3.05-4.63c0-1.81,1.15-3.22,3.3-3.22c2.69,0,3.37,2.05,3.28,4.58h-1.15c0.04-1.92-0.28-3.62-2.09-3.62
				c-1.43,0-2.11,1.07-2.11,2.3c0,1.36,0.75,2.24,2.3,3.43c2.34,1.77,3.11,2.79,3.11,5.03c0,2.2-1.17,3.47-3.41,3.47
				C281.58,149.27,280.05,147.88,280.37,144.02z"/>
			<path d="M290.46,147.35v1.75h-1.47v-1.75H290.46z"/>
			<path d="M303.53,138.91c0,3.37-1.09,4.73-4.5,4.73h-0.49v5.46h-1.26v-14.92h1.75C302.44,134.18,303.53,135.54,303.53,138.91z
				 M302.29,138.91c0-2.71-0.81-3.75-3.37-3.75h-0.38v7.5h0.38C301.48,142.66,302.29,141.62,302.29,138.91z"/>
			<path d="M311.13,149.1l-2.24-6.65c-0.17,0.02-0.36,0.02-0.58,0.02h-1v6.63h-1.26v-14.92h2.26c2.94,0,4.05,1.22,4.05,4.16
				c0,2.22-0.6,3.5-2.32,3.94l2.39,6.82H311.13z M311.1,138.33c0-2.3-0.77-3.2-2.92-3.2h-0.87v6.42h0.87
				C310.38,141.55,311.1,140.66,311.1,138.33z"/>
			<path d="M314.46,144.07v-4.9c0-3.71,1.02-5.14,3.54-5.14s3.52,1.43,3.52,5.14v4.9c0,3.75-1,5.18-3.52,5.18
				S314.46,147.82,314.46,144.07z M320.24,144.22v-5.18c0-2.98-0.62-4.05-2.24-4.05c-1.64,0-2.26,1.07-2.26,4.05v5.18
				c0,2.98,0.62,4.09,2.26,4.09C319.62,148.31,320.24,147.2,320.24,144.22z"/>
			<path d="M323.25,134.18h1.34l2.49,13.32l2.52-13.32h1.32l-3.03,14.92h-1.62L323.25,134.18z"/>
			<path d="M338.63,148.12v0.98h-5.65v-14.92h5.56v0.98h-4.28v5.33h3.69v0.94h-3.69v6.69H338.63z"/>
			<path d="M347.91,134.18v14.92h-1.45l-4.28-12.77v12.77h-1.17v-14.92h1.45l4.29,12.77v-12.77H347.91z"/>
			<path d="M360.51,149.1l-2.24-6.65c-0.17,0.02-0.36,0.02-0.58,0.02h-1v6.63h-1.26v-14.92h2.26c2.94,0,4.05,1.22,4.05,4.16
				c0,2.22-0.6,3.5-2.32,3.94l2.39,6.82H360.51z M360.49,138.33c0-2.3-0.77-3.2-2.92-3.2h-0.87v6.42h0.87
				C359.76,141.55,360.49,140.66,360.49,138.33z"/>
			<path d="M369.81,148.12v0.98h-5.65v-14.92h5.56v0.98h-4.28v5.33h3.69v0.94h-3.69v6.69H369.81z"/>
			<path d="M371.53,144.02h1.17c-0.23,3.05,0.68,4.28,2.2,4.28c1.43,0,2.15-0.96,2.13-2.49c0-1.68-0.6-2.56-2.34-3.9
				c-2.2-1.68-3.05-2.73-3.05-4.63c0-1.81,1.15-3.22,3.3-3.22c2.69,0,3.37,2.05,3.28,4.58h-1.15c0.04-1.92-0.28-3.62-2.09-3.62
				c-1.43,0-2.11,1.07-2.11,2.3c0,1.36,0.75,2.24,2.3,3.43c2.34,1.77,3.11,2.79,3.11,5.03c0,2.2-1.17,3.47-3.41,3.47
				C372.74,149.27,371.21,147.88,371.53,144.02z"/>
			<path d="M380.64,144.3v-10.13h1.26v10.21c0,2.81,0.51,3.92,2.24,3.92c1.68,0,2.22-1.11,2.22-3.92v-10.21h1.26v10.13
				c0,3.56-0.92,4.97-3.47,4.97C381.53,149.27,380.64,147.86,380.64,144.3z"/>
			<path d="M390.58,134.18h1.26v13.94h4.22v0.98h-5.48V134.18z"/>
			<path d="M403.66,135.16h-2.75v13.94h-1.26v-13.94h-2.75v-0.98h6.76V135.16z"/>
			<path d="M405.07,144.02h1.17c-0.23,3.05,0.68,4.28,2.2,4.28c1.43,0,2.15-0.96,2.13-2.49c0-1.68-0.6-2.56-2.34-3.9
				c-2.2-1.68-3.05-2.73-3.05-4.63c0-1.81,1.15-3.22,3.3-3.22c2.69,0,3.37,2.05,3.28,4.58h-1.15c0.04-1.92-0.28-3.62-2.09-3.62
				c-1.43,0-2.11,1.07-2.11,2.3c0,1.36,0.75,2.24,2.3,3.43c2.34,1.77,3.11,2.79,3.11,5.03c0,2.2-1.17,3.47-3.41,3.47
				C406.29,149.27,404.76,147.88,405.07,144.02z"/>
			<path d="M415.17,147.35v1.75h-1.47v-1.75H415.17z"/>
		</g>
	</g>
</g>
</svg>
