<svg xmlns="http://www.w3.org/2000/svg" xmlns:xlink="http://www.w3.org/1999/xlink" width="391" zoomAndPan="magnify" viewBox="0 0 293.25 147.749995" height="197" preserveAspectRatio="xMidYMid meet" version="1.0"><defs><g/><clipPath id="6730b9b300"><path d="M 0 42.847656 L 13.351562 42.847656 L 13.351562 56.199219 L 0 56.199219 Z M 0 42.847656 " clip-rule="nonzero"/></clipPath><clipPath id="ea1f0b8500"><path d="M 0 0.847656 L 13.351562 0.847656 L 13.351562 14.199219 L 0 14.199219 Z M 0 0.847656 " clip-rule="nonzero"/></clipPath><clipPath id="57c53bbe8d"><rect x="0" width="14" y="0" height="15"/></clipPath><clipPath id="fcc8fb1c84"><path d="M 0 60.011719 L 13.351562 60.011719 L 13.351562 100.363281 L 0 100.363281 Z M 0 60.011719 " clip-rule="nonzero"/></clipPath><clipPath id="a28d344c0d"><path d="M 0 0.0117188 L 13.351562 0.0117188 L 13.351562 40.363281 L 0 40.363281 Z M 0 0.0117188 " clip-rule="nonzero"/></clipPath><clipPath id="449c45cf89"><rect x="0" width="14" y="0" height="41"/></clipPath><clipPath id="7a051c9f83"><path d="M 33.382812 42.847656 L 46.734375 42.847656 L 46.734375 100.363281 L 33.382812 100.363281 Z M 33.382812 42.847656 " clip-rule="nonzero"/></clipPath><clipPath id="279e0cf52e"><path d="M 0.382812 0.847656 L 13.734375 0.847656 L 13.734375 58.363281 L 0.382812 58.363281 Z M 0.382812 0.847656 " clip-rule="nonzero"/></clipPath><clipPath id="0563d1518b"><rect x="0" width="14" y="0" height="59"/></clipPath><clipPath id="a2f17ae8fb"><path d="M 51.640625 42.847656 L 64.992188 42.847656 L 64.992188 63.554688 L 51.640625 63.554688 Z M 51.640625 42.847656 " clip-rule="nonzero"/></clipPath><clipPath id="f60c5e11f1"><path d="M 0.640625 0.847656 L 13.992188 0.847656 L 13.992188 21.554688 L 0.640625 21.554688 Z M 0.640625 0.847656 " clip-rule="nonzero"/></clipPath><clipPath id="49029276e7"><rect x="0" width="14" y="0" height="22"/></clipPath><clipPath id="a73bff275b"><path d="M 16.265625 79.65625 L 29.617188 79.65625 L 29.617188 100.363281 L 16.265625 100.363281 Z M 16.265625 79.65625 " clip-rule="nonzero"/></clipPath><clipPath id="fcdf71d198"><path d="M 0.265625 0.65625 L 13.617188 0.65625 L 13.617188 21.363281 L 0.265625 21.363281 Z M 0.265625 0.65625 " clip-rule="nonzero"/></clipPath><clipPath id="6697fa50aa"><rect x="0" width="14" y="0" height="22"/></clipPath><clipPath id="efe041fab8"><path d="M 58.402344 87.011719 L 71.753906 87.011719 L 71.753906 100.363281 L 58.402344 100.363281 Z M 58.402344 87.011719 " clip-rule="nonzero"/></clipPath><clipPath id="ab37516bb7"><path d="M 0.402344 0.0117188 L 13.753906 0.0117188 L 13.753906 13.363281 L 0.402344 13.363281 Z M 0.402344 0.0117188 " clip-rule="nonzero"/></clipPath><clipPath id="d510290dc6"><rect x="0" width="14" y="0" height="14"/></clipPath><clipPath id="2cac3daa4f"><path d="M 58.722656 69.824219 L 72.074219 69.824219 L 72.074219 83.171875 L 58.722656 83.171875 Z M 58.722656 69.824219 " clip-rule="nonzero"/></clipPath><clipPath id="8fbe256b59"><path d="M 0.722656 0.824219 L 14.074219 0.824219 L 14.074219 14.171875 L 0.722656 14.171875 Z M 0.722656 0.824219 " clip-rule="nonzero"/></clipPath><clipPath id="361f50a62b"><rect x="0" width="15" y="0" height="15"/></clipPath><clipPath id="2beefa472f"><path d="M 74.664062 60.011719 L 88.015625 60.011719 L 88.015625 73.363281 L 74.664062 73.363281 Z M 74.664062 60.011719 " clip-rule="nonzero"/></clipPath><clipPath id="984e8471ec"><path d="M 0.664062 0.0117188 L 14.015625 0.0117188 L 14.015625 13.363281 L 0.664062 13.363281 Z M 0.664062 0.0117188 " clip-rule="nonzero"/></clipPath><clipPath id="c3c9f2babc"><rect x="0" width="15" y="0" height="14"/></clipPath><clipPath id="040452a7f1"><path d="M 74.664062 42.847656 L 88.015625 42.847656 L 88.015625 56.199219 L 74.664062 56.199219 Z M 74.664062 42.847656 " clip-rule="nonzero"/></clipPath><clipPath id="011d5e07f1"><path d="M 0.664062 0.847656 L 14.015625 0.847656 L 14.015625 14.199219 L 0.664062 14.199219 Z M 0.664062 0.847656 " clip-rule="nonzero"/></clipPath><clipPath id="011a019a6e"><rect x="0" width="15" y="0" height="15"/></clipPath><clipPath id="811701b28e"><path d="M 58.722656 42.847656 L 72.074219 42.847656 L 72.074219 56.199219 L 58.722656 56.199219 Z M 58.722656 42.847656 " clip-rule="nonzero"/></clipPath><clipPath id="523738aab8"><path d="M 0.722656 0.847656 L 14.074219 0.847656 L 14.074219 14.199219 L 0.722656 14.199219 Z M 0.722656 0.847656 " clip-rule="nonzero"/></clipPath><clipPath id="2f37d762af"><rect x="0" width="15" y="0" height="15"/></clipPath><clipPath id="bf1768817c"><rect x="0" width="169" y="0" height="72"/></clipPath></defs><g clip-path="url(#6730b9b300)"><g transform="matrix(1, 0, 0, 1, 0, 42)"><g clip-path="url(#57c53bbe8d)"><g clip-path="url(#ea1f0b8500)"><path fill="#0066ff" d="M 0 0.847656 L 13.351562 0.847656 L 13.351562 14.199219 L 0 14.199219 Z M 0 0.847656 " fill-opacity="1" fill-rule="nonzero"/></g></g></g></g><g clip-path="url(#fcc8fb1c84)"><g transform="matrix(1, 0, 0, 1, 0, 60)"><g clip-path="url(#449c45cf89)"><g clip-path="url(#a28d344c0d)"><path fill="#0066ff" d="M 0 0.0117188 L 13.351562 0.0117188 L 13.351562 40.378906 L 0 40.378906 Z M 0 0.0117188 " fill-opacity="1" fill-rule="nonzero"/></g></g></g></g><g clip-path="url(#7a051c9f83)"><g transform="matrix(1, 0, 0, 1, 33, 42)"><g clip-path="url(#0563d1518b)"><g clip-path="url(#279e0cf52e)"><path fill="#0066ff" d="M 0.382812 0.847656 L 13.734375 0.847656 L 13.734375 58.371094 L 0.382812 58.371094 Z M 0.382812 0.847656 " fill-opacity="1" fill-rule="nonzero"/></g></g></g></g><g clip-path="url(#a2f17ae8fb)"><g transform="matrix(1, 0, 0, 1, 51, 42)"><g clip-path="url(#49029276e7)"><g clip-path="url(#f60c5e11f1)"><path fill="#0066ff" d="M 0.640625 0.847656 L 13.992188 0.847656 L 13.992188 21.550781 L 0.640625 21.550781 Z M 0.640625 0.847656 " fill-opacity="1" fill-rule="nonzero"/></g></g></g></g><g clip-path="url(#a73bff275b)"><g transform="matrix(1, 0, 0, 1, 16, 79)"><g clip-path="url(#6697fa50aa)"><g clip-path="url(#fcdf71d198)"><path fill="#0066ff" d="M 0.265625 0.65625 L 13.617188 0.65625 L 13.617188 21.359375 L 0.265625 21.359375 Z M 0.265625 0.65625 " fill-opacity="1" fill-rule="nonzero"/></g></g></g></g><g clip-path="url(#efe041fab8)"><g transform="matrix(1, 0, 0, 1, 58, 87)"><g clip-path="url(#d510290dc6)"><g clip-path="url(#ab37516bb7)"><path fill="#0066ff" d="M 0.402344 0.0117188 L 13.753906 0.0117188 L 13.753906 13.363281 L 0.402344 13.363281 Z M 0.402344 0.0117188 " fill-opacity="1" fill-rule="nonzero"/></g></g></g></g><g clip-path="url(#2cac3daa4f)"><g transform="matrix(1, 0, 0, 1, 58, 69)"><g clip-path="url(#361f50a62b)"><g clip-path="url(#8fbe256b59)"><path fill="#0066ff" d="M 0.722656 0.824219 L 14.074219 0.824219 L 14.074219 14.171875 L 0.722656 14.171875 Z M 0.722656 0.824219 " fill-opacity="1" fill-rule="nonzero"/></g></g></g></g><g clip-path="url(#2beefa472f)"><g transform="matrix(1, 0, 0, 1, 74, 60)"><g clip-path="url(#c3c9f2babc)"><g clip-path="url(#984e8471ec)"><path fill="#0066ff" d="M 0.664062 0.0117188 L 14.015625 0.0117188 L 14.015625 13.363281 L 0.664062 13.363281 Z M 0.664062 0.0117188 " fill-opacity="1" fill-rule="nonzero"/></g></g></g></g><g clip-path="url(#040452a7f1)"><g transform="matrix(1, 0, 0, 1, 74, 42)"><g clip-path="url(#011a019a6e)"><g clip-path="url(#011d5e07f1)"><path fill="#0066ff" d="M 0.664062 0.847656 L 14.015625 0.847656 L 14.015625 14.199219 L 0.664062 14.199219 Z M 0.664062 0.847656 " fill-opacity="1" fill-rule="nonzero"/></g></g></g></g><g clip-path="url(#811701b28e)"><g transform="matrix(1, 0, 0, 1, 58, 42)"><g clip-path="url(#2f37d762af)"><g clip-path="url(#523738aab8)"><path fill="#0066ff" d="M 0.722656 0.847656 L 14.074219 0.847656 L 14.074219 14.199219 L 0.722656 14.199219 Z M 0.722656 0.847656 " fill-opacity="1" fill-rule="nonzero"/></g></g></g></g><g transform="matrix(1, 0, 0, 1, 93, 38)"><g clip-path="url(#bf1768817c)"><g fill="#000000" fill-opacity="1"><g transform="translate(0.411417, 58.249596)"><g><path d="M 11.515625 -53.5625 L 11.515625 0 L 5.546875 0 L 5.546875 -53.5625 Z M 11.515625 -53.5625 "/></g></g></g><g fill="#000000" fill-opacity="1"><g transform="translate(17.391484, 58.249596)"><g><path d="M 25.15625 -56.125 L 49.234375 0 L 42.625 0 L 36.3125 -15.203125 L 13.421875 -15.203125 L 6.96875 0 L 0.421875 0 Z M 15.84375 -20.75 L 33.953125 -20.75 L 25.015625 -42.203125 Z M 9.65625 -53.5625 Z M 9.65625 -53.5625 "/></g></g></g><g fill="#000000" fill-opacity="1"><g transform="translate(67.052861, 58.249596)"><g><path d="M 29.703125 -43.125 C 28.515625 -45.207031 27.195312 -46.695312 25.75 -47.59375 C 24.3125 -48.5 22.570312 -48.953125 20.53125 -48.953125 C 17.925781 -48.953125 15.78125 -48.144531 14.09375 -46.53125 C 12.414062 -44.925781 11.578125 -42.960938 11.578125 -40.640625 C 11.578125 -38.835938 12.273438 -37.296875 13.671875 -36.015625 C 15.066406 -34.742188 16.757812 -33.65625 18.75 -32.75 C 20.738281 -31.851562 22.539062 -31.070312 24.15625 -30.40625 C 25.769531 -29.738281 27.640625 -28.742188 29.765625 -27.421875 C 31.898438 -26.097656 33.535156 -24.441406 34.671875 -22.453125 C 35.804688 -20.460938 36.375 -18.1875 36.375 -15.625 C 36.375 -12.6875 35.640625 -9.9375 34.171875 -7.375 C 32.703125 -4.820312 30.664062 -2.800781 28.0625 -1.3125 C 25.457031 0.175781 22.613281 0.921875 19.53125 0.921875 C 15.320312 0.921875 11.710938 -0.316406 8.703125 -2.796875 C 5.691406 -5.285156 3.738281 -8.664062 2.84375 -12.9375 L 8.671875 -14.5625 C 9.140625 -11.625 10.359375 -9.234375 12.328125 -7.390625 C 14.296875 -5.546875 16.648438 -4.625 19.390625 -4.625 C 22.378906 -4.625 24.960938 -5.640625 27.140625 -7.671875 C 29.316406 -9.710938 30.40625 -12.175781 30.40625 -15.0625 C 30.40625 -17.625 29.578125 -19.71875 27.921875 -21.34375 C 26.265625 -22.976562 23.234375 -24.671875 18.828125 -26.421875 C 14.421875 -28.179688 11.113281 -30.148438 8.90625 -32.328125 C 6.707031 -34.503906 5.609375 -37.347656 5.609375 -40.859375 C 5.609375 -44.828125 7.078125 -48.09375 10.015625 -50.65625 C 12.953125 -53.21875 16.484375 -54.5 20.609375 -54.5 C 23.640625 -54.5 26.328125 -53.785156 28.671875 -52.359375 C 31.015625 -50.941406 32.941406 -48.882812 34.453125 -46.1875 Z M 29.703125 -43.125 "/></g></g></g><g fill="#000000" fill-opacity="1"><g transform="translate(106.76775, 58.249596)"><g><path d="M 50.796875 -7.671875 L 58.828125 0.5 L 51.21875 0.5 L 46.75 -4.328125 C 44.476562 -2.628906 41.90625 -1.328125 39.03125 -0.421875 C 36.164062 0.472656 33.363281 0.921875 30.625 0.921875 C 25.644531 0.921875 21.007812 -0.296875 16.71875 -2.734375 C 12.4375 -5.171875 9.03125 -8.53125 6.5 -12.8125 C 3.96875 -17.101562 2.703125 -21.738281 2.703125 -26.71875 C 2.703125 -31.644531 3.96875 -36.257812 6.5 -40.5625 C 9.03125 -44.875 12.453125 -48.273438 16.765625 -50.765625 C 21.078125 -53.253906 25.695312 -54.5 30.625 -54.5 C 35.59375 -54.5 40.234375 -53.242188 44.546875 -50.734375 C 48.859375 -48.222656 52.269531 -44.8125 54.78125 -40.5 C 57.289062 -36.1875 58.546875 -31.546875 58.546875 -26.578125 C 58.546875 -22.828125 57.894531 -19.410156 56.59375 -16.328125 C 55.289062 -13.253906 53.359375 -10.367188 50.796875 -7.671875 Z M 42.5625 -8.59375 L 29.625 -21.59375 L 37.4375 -21.59375 L 46.671875 -11.9375 C 50.609375 -16.050781 52.578125 -21 52.578125 -26.78125 C 52.578125 -30.625 51.648438 -34.238281 49.796875 -37.625 C 47.953125 -41.007812 45.300781 -43.742188 41.84375 -45.828125 C 38.382812 -47.910156 34.617188 -48.953125 30.546875 -48.953125 C 26.566406 -48.953125 22.894531 -47.929688 19.53125 -45.890625 C 16.175781 -43.859375 13.523438 -41.148438 11.578125 -37.765625 C 9.640625 -34.378906 8.671875 -30.71875 8.671875 -26.78125 C 8.671875 -22.851562 9.675781 -19.171875 11.6875 -15.734375 C 13.695312 -12.304688 16.382812 -9.597656 19.75 -7.609375 C 23.113281 -5.617188 26.738281 -4.625 30.625 -4.625 C 32.613281 -4.625 34.6875 -4.976562 36.84375 -5.6875 C 39 -6.394531 40.90625 -7.363281 42.5625 -8.59375 Z M 42.5625 -8.59375 "/></g></g></g></g></g></svg>